# xmcd CD database file
# Copyright (C) 1993-1998 Ti Kan
#
# Track frame offsets:
#  192
#  18692
#  36312
#  49580
#  67405
#  80670
#  95945
#  119655
#  134380
#  149520
#  168737
#
# Disc length: 2510 seconds
#
# Revision: 1
# Processed by: cddbd v1.4b41PL1 Copyright (c) Steve Scherf et al.
# Submitted via: CDWizzard Release:4.35
#
DISCID=b409cc0b
DTITLE=Keith Green - Jesus Commands Us To Go
DYEAR=1900
DGENRE=
TTITLE0=Dust To Dust
TTITLE1=A Billion Starving People
TTITLE2=When There's Love
TTITLE3=When I First Trusted You
TTITLE4=Thank You Jesus
TTITLE5=On The Road To Jericho
TTITLE6=Jesus Commands Us To Go
TTITLE7=Run To The End Of The Highway
TTITLE8=Don't You Wish You Had The Answers
TTITLE9=Keith's Piano Prelude
TTITLE10=Create In Me A Clean Heart
EXTD=
EXTT0=
EXTT1=
EXTT2=
EXTT3=
EXTT4=
EXTT5=
EXTT6=
EXTT7=
EXTT8=
EXTT9=
EXTT10=
PLAYORDER=
